<svg width="20" height="20" viewBox="0 0 20 20" fill="none" xmlns="http://www.w3.org/2000/svg">
<mask id="mask0_77_58" style="mask-type:alpha" maskUnits="userSpaceOnUse" x="0" y="0" width="20" height="20">
<rect width="20" height="20" fill="#D9D9D9"/>
</mask>
<g mask="url(#mask0_77_58)">
<path d="M10.0019 13.1474C10.8767 13.1474 11.6196 12.8412 12.2308 12.2289C12.8419 11.6165 13.1474 10.8729 13.1474 9.9981C13.1474 9.12331 12.8412 8.38036 12.2289 7.76925C11.6165 7.15814 10.8729 6.85258 9.99811 6.85258C9.12332 6.85258 8.38036 7.15876 7.76925 7.77112C7.15814 8.3835 6.85259 9.12709 6.85259 10.0019C6.85259 10.8767 7.15877 11.6196 7.77113 12.2308C8.3835 12.8419 9.12709 13.1474 10.0019 13.1474ZM10 12C9.44445 12 8.97223 11.8056 8.58334 11.4167C8.19445 11.0278 8 10.5556 8 10C8 9.44444 8.19445 8.97222 8.58334 8.58333C8.97223 8.19444 9.44445 8 10 8C10.5556 8 11.0278 8.19444 11.4167 8.58333C11.8056 8.97222 12 9.44444 12 10C12 10.5556 11.8056 11.0278 11.4167 11.4167C11.0278 11.8056 10.5556 12 10 12ZM10.0011 15.5833C8.13208 15.5833 6.42905 15.0756 4.89207 14.0601C3.35507 13.0446 2.2073 11.6912 1.44875 10C2.2073 8.30876 3.35468 6.9554 4.89092 5.93992C6.42714 4.92443 8.12979 4.41669 9.99886 4.41669C11.8679 4.41669 13.571 4.92443 15.1079 5.93992C16.6449 6.9554 17.7927 8.30876 18.5513 10C17.7927 11.6912 16.6453 13.0446 15.1091 14.0601C13.5729 15.0756 11.8702 15.5833 10.0011 15.5833ZM10 14.5C11.5556 14.5 12.9931 14.0972 14.3125 13.2917C15.6319 12.4861 16.6458 11.3889 17.3542 10C16.6458 8.61111 15.6319 7.51389 14.3125 6.70833C12.9931 5.90278 11.5556 5.5 10 5.5C8.44445 5.5 7.00695 5.90278 5.6875 6.70833C4.36806 7.51389 3.35417 8.61111 2.64584 10C3.35417 11.3889 4.36806 12.4861 5.6875 13.2917C7.00695 14.0972 8.44445 14.5 10 14.5Z" fill="#767676"/>
</g>
</svg>
