<svg width="20" height="19" viewBox="0 0 20 19" fill="none" xmlns="http://www.w3.org/2000/svg">
<path d="M6.05771 15.5C5.55258 15.5 5.12502 15.325 4.77504 14.975C4.42504 14.625 4.25004 14.1974 4.25004 13.6923V2.3077C4.25004 1.80257 4.42504 1.375 4.77504 1.025C5.12502 0.675 5.55258 0.5 6.05771 0.5H17.4423C17.9474 0.5 18.375 0.675 18.725 1.025C19.075 1.375 19.25 1.80257 19.25 2.3077V13.6923C19.25 14.1974 19.075 14.625 18.725 14.975C18.375 15.325 17.9474 15.5 17.4423 15.5H6.05771ZM6.05771 14H17.4423C17.5192 14 17.5897 13.9679 17.6538 13.9038C17.7179 13.8397 17.75 13.7692 17.75 13.6923V5.51918H11.1346V1.99998H6.05771C5.98078 1.99998 5.91026 2.03203 5.84616 2.09613C5.78204 2.16024 5.74999 2.23077 5.74999 2.3077V13.6923C5.74999 13.7692 5.78204 13.8397 5.84616 13.9038C5.91026 13.9679 5.98078 14 6.05771 14ZM2.55774 18.9999C2.05262 18.9999 1.62506 18.8249 1.27506 18.4749C0.925061 18.1249 0.750061 17.6973 0.750061 17.1922V4.3077H2.25004V17.1922C2.25004 17.2692 2.28209 17.3397 2.34619 17.4038C2.4103 17.4679 2.48082 17.5 2.55774 17.5H15.4423V18.9999H2.55774Z" fill="#111111"/>
</svg>
