<svg width="23" height="24" viewBox="0 0 23 24" fill="none" xmlns="http://www.w3.org/2000/svg">
<path d="M13.8228 15.473C12.7122 16.3149 11.3234 16.7039 9.93709 16.5613C8.55074 16.4186 7.27024 15.755 6.35438 14.7046C5.43851 13.6541 4.95559 12.2951 5.00321 10.9022C5.05084 9.50939 5.62545 8.18655 6.61092 7.20108C7.59639 6.21561 8.91922 5.641 10.3121 5.59338C11.7049 5.54576 13.0639 6.02868 14.1144 6.94454C15.1649 7.8604 15.8285 9.1409 15.9711 10.5273C16.1138 11.9136 15.7248 13.3024 14.8828 14.413L17.5298 17.06C17.8228 17.353 18.0598 17.65 17.5298 18.12C16.9998 18.59 16.7628 18.413 16.4698 18.12L13.8228 15.473ZM10.4998 15.09C11.5607 15.09 12.5781 14.6685 13.3282 13.9184C14.0784 13.1683 14.4998 12.1508 14.4998 11.09C14.4998 10.0291 14.0784 9.01169 13.3282 8.26154C12.5781 7.5114 11.5607 7.08997 10.4998 7.08997C9.43894 7.08997 8.42153 7.5114 7.67138 8.26154C6.92123 9.01169 6.49981 10.0291 6.49981 11.09C6.49981 12.1508 6.92123 13.1683 7.67138 13.9184C8.42153 14.6685 9.43894 15.09 10.4998 15.09Z" fill="#111111"/>
</svg>
